<?xml version="1.0" standalone="no"?>
<!DOCTYPE svg PUBLIC "-//W3C//DTD SVG 20010904//EN"
 "http://www.w3.org/TR/2001/REC-SVG-20010904/DTD/svg10.dtd">
<svg version="1.0" xmlns="http://www.w3.org/2000/svg"
 width="225.000000pt" height="225.000000pt" viewBox="0 0 225.000000 225.000000"
 preserveAspectRatio="xMidYMid meet">
<metadata>
Created by potrace 1.16, written by Peter Selinger 2001-2019
</metadata>
<g transform="translate(0.000000,225.000000) scale(0.100000,-0.100000)"
fill="#000000" stroke="none">
<path d="M1150 1815 c0 -21 -5 -25 -30 -25 -17 0 -47 -7 -67 -15 -19 -8 -52
-15 -72 -15 -21 0 -31 -4 -24 -8 7 -4 -33 -9 -90 -10 -123 -3 -219 -17 -261
-39 -39 -20 -186 -114 -186 -119 0 -2 8 -1 18 3 9 3 14 3 10 -2 -4 -4 -35 -8
-70 -9 -57 -1 -63 -3 -66 -23 -3 -18 -10 -23 -35 -24 -18 0 -68 -8 -112 -17
-80 -17 -80 -17 -85 -52 -4 -27 -10 -36 -29 -38 -20 -3 -22 -8 -17 -34 3 -17
6 -34 6 -39 0 -5 4 -9 10 -9 6 0 6 10 -1 27 -11 31 -3 43 35 47 24 3 26 0 26
-35 0 -33 -3 -39 -22 -39 -21 0 -21 0 -2 -14 10 -8 21 -11 24 -6 3 4 6 -26 7
-67 2 -94 19 -166 44 -189 31 -28 108 -22 137 11 12 14 22 35 22 46 0 24 18
24 50 2 31 -22 186 -72 265 -85 70 -11 77 -18 94 -78 35 -126 88 -167 200
-155 112 12 145 36 164 116 10 38 53 45 90 13 22 -18 42 -24 85 -26 94 -3 119
2 186 31 86 39 161 44 200 14 52 -41 168 -33 230 16 20 16 55 32 78 36 82 14
158 59 158 94 0 9 13 22 30 29 32 14 48 48 32 64 -6 6 -8 31 -5 58 6 53 -33
190 -66 232 -14 18 -20 50 -25 138 -4 63 -9 127 -12 143 l-6 27 -90 0 c-83 0
-94 -2 -126 -27 -85 -65 -128 -88 -154 -85 -25 3 -28 7 -28 40 0 81 -2 82
-105 82 -78 0 -96 -3 -118 -21 -21 -16 -30 -18 -47 -9 -11 6 -28 10 -38 8 -9
-1 -33 12 -52 30 -31 29 -40 32 -97 32 -61 0 -63 -1 -63 -25z m513 -156 c10
-73 16 -134 14 -136 -3 -2 -7 13 -10 34 l-6 38 -75 -3 c-60 -3 -76 -7 -79 -20
-3 -10 -5 -5 -6 10 -1 21 3 26 14 22 8 -4 27 -3 41 0 23 6 26 11 20 36 -3 17
-1 30 4 30 6 0 9 -3 9 -7 -7 -41 2 -53 37 -53 33 0 36 2 30 23 -3 12 -6 31 -6
42 0 18 -7 20 -82 20 -81 0 -83 0 -85 25 -1 22 -1 22 4 3 3 -16 12 -23 28 -23
43 0 51 8 47 45 -4 31 -8 35 -32 35 -16 0 -36 -7 -44 -16 -14 -13 -16 -13 -16
0 0 19 19 23 106 25 l70 1 17 -131z m400 54 c7 -73 7 -202 0 -145 -4 32 -5 32
-59 32 l-54 0 -1 -42 c-1 -29 -5 -14 -14 47 -6 50 -15 109 -19 133 l-8 42 75
0 74 0 6 -67z m-1125 15 c-2 -6 7 -14 20 -17 13 -3 23 -10 22 -15 -1 -5 25
-19 58 -31 33 -12 77 -32 98 -44 34 -20 37 -21 22 -4 -10 11 -18 23 -18 27 0
4 -8 18 -17 29 -15 19 -27 22 -73 19 -30 -2 -52 -1 -49 2 3 4 37 8 76 10 60 3
70 2 69 -12 -1 -13 7 -16 35 -14 40 4 71 -20 51 -40 -8 -8 -16 -7 -28 3 -12 9
-15 10 -10 2 11 -19 -5 -15 -20 5 -7 9 -14 12 -14 5 0 -6 8 -19 17 -29 14 -14
30 -16 90 -11 40 3 73 2 73 -3 0 -11 -38 -20 -94 -20 l-49 0 39 -26 c67 -45
66 -43 38 -76 -55 -67 -93 -174 -103 -291 -3 -42 -10 -78 -16 -78 -17 -2 -56
80 -62 131 -5 40 -3 51 11 56 20 8 21 28 1 44 -9 7 -15 29 -15 51 l0 38 52 3
c46 3 54 6 70 34 10 17 16 38 13 46 -7 17 -262 148 -288 148 -10 0 -29 -11
-42 -24 -29 -29 -78 -123 -70 -136 3 -5 0 -12 -6 -16 -8 -4 -9 -3 -5 4 9 16
-7 15 -22 0 -9 -9 -12 -8 -12 5 0 9 7 17 15 17 14 0 19 11 16 38 -2 14 38 71
88 125 19 20 30 37 24 37 -7 0 -31 -26 -55 -57 -24 -31 -55 -69 -70 -84 -30
-29 -39 -91 -17 -105 7 -4 70 -12 142 -19 106 -10 133 -15 144 -30 15 -22 18
-65 3 -65 -5 0 -10 -7 -10 -15 0 -8 4 -15 9 -15 5 0 10 -28 13 -63 2 -40 12
-79 27 -107 13 -25 24 -54 25 -65 1 -11 7 -19 13 -18 7 2 14 -6 18 -16 11 -37
80 -88 136 -101 52 -13 53 -14 26 -23 -20 -6 -32 -5 -44 5 -9 7 -14 8 -10 2 4
-7 -2 -14 -13 -17 -11 -3 -20 -2 -20 3 0 4 -15 11 -34 14 -39 7 -48 19 -121
164 -39 75 -49 106 -55 168 -9 88 -20 104 -81 110 l-44 4 39 -10 c57 -15 64
-24 71 -98 4 -42 20 -99 42 -150 19 -46 33 -85 30 -88 -2 -3 -20 -7 -40 -11
-39 -6 -36 -10 -57 87 -31 140 -102 230 -181 230 -70 0 -99 -52 -99 -176 0
-41 -4 -74 -9 -74 -9 0 -7 73 4 153 3 21 17 61 30 88 l25 49 63 2 c42 1 49 2
22 5 -85 7 -102 13 -114 39 -16 35 -1 86 47 160 52 80 116 140 155 143 4 1 6
-4 5 -11z m-128 -48 c0 -17 -124 -180 -137 -180 -16 0 -16 8 -2 49 15 42 3 54
-52 53 -32 -1 -60 -12 -116 -46 -40 -25 -78 -46 -83 -46 -4 0 -2 13 6 30 15
29 161 122 222 140 38 12 162 12 162 0z m-91 -183 c-5 -21 -33 -68 -61 -105
-28 -37 -38 -56 -24 -42 15 13 37 40 48 59 l21 34 18 -21 c16 -21 16 -24 -11
-75 -23 -42 -30 -70 -36 -144 l-7 -93 -26 7 c-14 3 -37 10 -51 16 -14 6 -29
11 -35 12 -5 2 -44 12 -85 24 -41 12 -83 25 -93 28 -10 3 -25 19 -33 36 -14
30 -15 30 -9 5 4 -23 2 -28 -15 -28 -25 0 -43 38 -71 150 -30 117 -34 123 -74
118 -61 -7 -32 16 36 29 90 17 100 16 106 -8 4 -14 8 -17 13 -9 6 9 13 9 29 1
12 -7 28 -8 36 -4 8 5 70 5 137 0 143 -9 160 -6 178 28 18 34 22 27 9 -18z
m661 -14 c59 -7 68 -16 20 -22 -42 -6 -47 -9 -69 -54 -13 -27 -24 -65 -25 -85
l-1 -37 100 0 c103 0 347 12 400 20 17 2 80 9 140 15 61 6 124 13 140 16 23 4
26 3 15 -5 -19 -13 -14 -13 28 -2 25 8 32 7 32 -5 0 -17 -12 -20 -180 -39
-391 -44 -740 -66 -777 -49 -13 6 -5 10 32 14 l50 7 -47 1 c-27 1 -48 7 -48
12 0 27 45 138 71 176 29 43 51 49 63 18 3 -8 11 -14 17 -14 7 0 2 12 -12 27
-21 23 -22 25 -4 18 11 -4 36 -10 55 -12z m434 -59 c10 -27 7 -64 -6 -64 -10
0 -9 -3 1 -9 20 -13 2 -19 -76 -26 -67 -7 -71 -6 -78 14 -4 13 1 37 12 61 l18
39 61 1 c47 0 63 -4 68 -16z m-1603 -121 c21 -39 19 -155 -4 -177 -10 -10 -24
-15 -34 -12 -13 5 -14 4 -4 -8 7 -8 19 -12 27 -9 8 3 14 0 14 -6 0 -13 -20
-14 -39 -2 -16 10 -24 66 -22 150 2 87 33 119 62 64z m636 -81 c13 -8 43 -73
43 -93 0 -6 -7 -8 -16 -5 -9 4 -23 1 -30 -5 -18 -15 -18 -90 0 -114 16 -22 46
-14 46 12 0 15 -2 15 -15 -3 -13 -16 -16 -17 -25 -4 -13 19 -13 81 0 100 9 13
12 13 24 -2 7 -10 15 -16 17 -14 2 3 4 -29 4 -69 0 -81 -22 -127 -64 -133 -31
-5 -47 20 -66 101 -23 99 -6 183 44 225 17 14 22 14 38 4z"/>
</g>
</svg>
